Coordinates
version=1
nRows=21
nColumns=22
inDegrees=yes

Units are S.I. units (second, meters, Newtons, ...)
If the header above contains a line with 'inDegrees', this indicates whether rotational values are in degrees (yes) or radians (no).

endheader
time	pelvis_tilt	pelvis_list	pelvis_rotation	pelvis_tx	pelvis_ty	pelvis_tz	hip_flexion_r	hip_adduction_r	hip_rotation_r	knee_angle_r	ankle_angle_r	subtalar_angle_r	hip_flexion_l	hip_adduction_l	hip_rotation_l	knee_angle_l	ankle_angle_l	subtalar_angle_l	lumbar_extension	lumbar_bending	lumbar_rotation
      1.31000000	     -4.73327053	     -1.86173873	     -4.50525082	     -1.15014484	      0.95144971	      0.41542203	     10.39695936	      4.55311842	     -0.53998736	    -21.01297679	     16.57967883	     -3.59355933	      8.31168401	     -2.99406963	     -8.96559167	    -19.62213544	     14.75739130	     -5.57827281	     -4.07618207	      0.94531636	     -2.06929000
      1.32000000	     -4.71997201	     -2.02665099	     -4.67379607	     -1.14874326	      0.95109885	      0.41713089	     10.20997577	      4.87188127	     -0.22525159	    -20.93669809	     16.67752352	     -3.73070336	      8.54574901	     -3.32830250	     -8.96397386	    -20.32024847	     15.04861954	     -5.26085451	     -4.10617997	      1.13790324	     -1.94647413
      1.33000000	     -4.67290087	     -2.23416750	     -4.85070044	     -1.14730845	      0.95073056	      0.41888549	      9.98560716	      5.23324844	      0.09399693	    -20.86993779	     16.72948509	     -3.78749736	      8.81163439	     -3.71452961	     -8.93156346	    -21.15268269	     15.33983769	     -5.12191276	     -4.19006841	      1.37855157	     -1.80594557
      1.34000000	     -4.65356000	     -2.45808207	     -5.02518887	     -1.14584274	      0.95024545	      0.42068105	      9.78661224	      5.61329475	      0.39909991	    -20.80289026	     16.81164700	     -3.90153076	      9.20258788	     -4.13553229	     -8.86041705	    -22.16313218	     15.64918779	     -4.74259305	     -4.24694674	      1.63960694	     -1.64867454
      1.35000000	     -4.60709309	     -2.71312691	     -5.20016425	     -1.14435993	      0.94973118	      0.42249911	      9.56008412	      6.01870326	      0.67961033	    -20.74667767	     16.87090720	     -3.95972165	      9.65657649	     -4.59644968	     -8.73528844	    -23.34679793	     15.93021844	     -4.44137648	     -4.35269919	      1.93369734	     -1.47434528
      1.36000000	     -4.55293592	     -2.98598601	     -5.37175950	     -1.14287296	      0.94916659	      0.42430583	      9.32901072	      6.43272169	      0.92229041	    -20.70205024	     16.93407322	     -3.98313483	     10.20842104	     -5.08309546	     -8.55162630	    -24.72291329	     16.15927619	     -4.11434095	     -4.48391073	      2.25068231	     -1.28151180
      1.37000000	     -4.48963907	     -3.26437942	     -5.53991155	     -1.14138846	      0.94857385	      0.42607942	      9.09196121	      6.83949267	      1.12107086	    -20.66602743	     17.00649250	     -3.97116861	     10.86055598	     -5.58037292	     -8.31428571	    -26.29483646	     16.30288982	     -3.75827610	     -4.64408477	      2.57678635	     -1.06866801
      1.38000000	     -4.41330419	     -3.53540476	     -5.70609838	     -1.13991741	      0.94798204	      0.42781199	      8.84615360	      7.22517174	      1.27941824	    -20.63759290	     17.08631378	     -3.92209800	     11.60794106	     -6.07304566	     -8.03402849	    -28.05520451	     16.32509302	     -3.38562200	     -4.83880678	      2.89501922	     -0.83836228
      1.39000000	     -4.30270523	     -3.80297137	     -5.87378286	     -1.13844448	      0.94746643	      0.42947255	      8.55557257	      7.59146054	      1.41823959	    -20.59527696	     17.14338914	     -3.84646632	     12.42066954	     -6.55892617	     -7.72226421	    -29.99139384	     16.18461712	     -3.07184166	     -5.09347434	      3.21321933	     -0.57848157
      1.40000000	     -4.23880173	     -4.01442156	     -6.03828111	     -1.13701834	      0.94690632	      0.43105190	      8.34300936	      7.88384373	      1.47491968	    -20.58622613	     17.28381028	     -3.71512404	     13.40143298	     -6.98935073	     -7.38285822	    -32.10744751	     15.85375176	     -2.57744312	     -5.30969736	      3.47336252	     -0.29760801
      1.41000000	     -4.10380442	     -4.22666960	     -6.21509584	     -1.13557658	      0.94654642	      0.43257718	      8.02739234	      8.16431672	      1.55828776	    -20.53002458	     17.34072242	     -3.58732936	     14.38237545	     -7.40934315	     -7.03288373	    -34.34490298	     15.30965141	     -2.25001608	     -5.63174566	      3.72893824	      0.02362010
      1.42000000	     -4.02101707	     -4.37346220	     -6.39413842	     -1.13416130	      0.94616042	      0.43399631	      7.79449469	      8.36092284	      1.57020954	    -20.50263610	     17.49551385	     -3.38009495	     15.52213489	     -7.76276959	     -6.69663773	    -36.71406432	     14.57072288	     -1.81288327	     -5.90399998	      3.92006538	      0.37183514
      1.43000000	     -3.89046252	     -4.50233776	     -6.58853317	     -1.13268937	      0.94595360	      0.43536674	      7.47704908	      8.52846510	      1.62128445	    -20.41657012	     17.59834758	     -3.16527861	     16.66337793	     -8.08969483	     -6.39169028	    -39.13316443	     13.64130373	     -1.47468598	     -6.24280045	      4.08496235	      0.76078543
      1.44000000	     -3.75761597	     -4.58931576	     -6.79653450	     -1.13116834	      0.94583031	      0.43666485	      7.14534231	      8.64211596	      1.69452723	    -20.30501711	     17.71790339	     -2.91050888	     17.85134854	     -8.37287214	     -6.14414781	    -41.56922926	     12.56300441	     -1.16481182	     -6.59055170	      4.20328131	      1.16109691
      1.45000000	     -3.61130190	     -4.64270217	     -7.02178248	     -1.12957017	      0.94580194	      0.43792918	      6.78146776	      8.71318560	      1.79503380	    -20.16320124	     17.85013719	     -2.62330267	     19.04742070	     -8.62188560	     -5.96045347	    -43.96178095	     11.40779109	     -0.90336478	     -6.95489208	      4.27569367	      1.59477000
      1.46000000	     -3.45381237	     -4.66852958	     -7.26290878	     -1.12784270	      0.94586106	      0.43912160	      6.37699827	      8.74433984	      1.92733921	    -19.97884410	     17.97301500	     -2.33522749	     20.22889877	     -8.84603202	     -5.86462455	    -46.25320451	     10.25389838	     -0.69180346	     -7.32555506	      4.31893214	      2.05063493
      1.47000000	     -3.29567613	     -4.66503813	     -7.51787900	     -1.12599320	      0.94598159	      0.44026331	      5.94906371	      8.73748655	      2.08774017	    -19.76420521	     18.08725606	     -2.05004702	     21.38900143	     -9.04402181	     -5.84853141	    -48.38879453	      9.17966888	     -0.51491853	     -7.69036313	      4.32622542	      2.52253184
      1.48000000	     -3.14719894	     -4.63515500	     -7.78630787	     -1.12402018	      0.94614134	      0.44134229	      5.51761941	      8.69430088	      2.24907165	    -19.53559313	     18.19925094	     -1.76961316	     22.52222489	     -9.21601387	     -5.90685364	    -50.32295691	      8.26975068	     -0.36377582	     -8.03671053	      4.30255151	      3.00843370
      1.49000000	     -2.99978323	     -4.56990504	     -8.05032054	     -1.12188082	      0.94636560	      0.44232839	      5.05929670	      8.60553137	      2.42989665	    -19.27189925	     18.27533518	     -1.54833078	     23.60208658	     -9.34052704	     -6.02227448	    -52.00508972	      7.53299165	     -0.21768244	     -8.36488365	      4.24228245	      3.47608299
      1.50000000	     -2.91204795	     -4.48975726	     -8.31577859	     -1.11965753	      0.94650116	      0.44323295	      4.69281484	      8.49712005	      2.55063452	    -19.06938014	     18.40890401	     -1.19680650	     24.70608207	     -9.45299488	     -6.18400851	    -53.44711564	      7.03733995	     -0.07177311	     -8.62192189	      4.17581779	      3.93189248
      1.51000000	     -2.81076815	     -4.38348566	     -8.57793672	     -1.11722972	      0.94673365	      0.44407158	      4.26807260	      8.35617547	      2.70498131	    -18.80828915	     18.44371937	     -1.03353689	     25.71441417	     -9.52688932	     -6.39859261	    -54.58236700	      6.68974753	      0.05817406	     -8.87609498	      4.07825190	      4.37027042
